<?xml version="1.0" encoding="UTF-8" standalone="no"?>
<!-- Created with Inkscape (http://www.inkscape.org/) -->

<svg
   width="1000"
   height="1000"
   viewBox="0 0 264.58333 264.58333"
   version="1.1"
   id="svg1"
   inkscape:version="1.3.2 (091e20e, 2023-11-25)"
   sodipodi:docname="logo-box.svg"
   xmlns:inkscape="http://www.inkscape.org/namespaces/inkscape"
   xmlns:sodipodi="http://sodipodi.sourceforge.net/DTD/sodipodi-0.dtd"
   xmlns:xlink="http://www.w3.org/1999/xlink"
   xmlns="http://www.w3.org/2000/svg"
   xmlns:svg="http://www.w3.org/2000/svg">
  <sodipodi:namedview
     id="namedview1"
     pagecolor="#ffffff"
     bordercolor="#000000"
     borderopacity="0.25"
     inkscape:showpageshadow="2"
     inkscape:pageopacity="0.0"
     inkscape:pagecheckerboard="0"
     inkscape:deskcolor="#d1d1d1"
     inkscape:document-units="mm"
     inkscape:zoom="0.54582306"
     inkscape:cx="551.46076"
     inkscape:cy="483.67323"
     inkscape:window-width="1440"
     inkscape:window-height="847"
     inkscape:window-x="0"
     inkscape:window-y="25"
     inkscape:window-maximized="0"
     inkscape:current-layer="layer1" />
  <defs
     id="defs1">
    <linearGradient
       id="linearGradient1"
       inkscape:collect="always">
      <stop
         style="stop-color:#e9fcc2;stop-opacity:1;"
         offset="0.60963851"
         id="stop1" />
      <stop
         style="stop-color:#d4f68b;stop-opacity:1;"
         offset="1"
         id="stop2" />
    </linearGradient>
    <radialGradient
       inkscape:collect="always"
       xlink:href="#linearGradient1"
       id="radialGradient20"
       cx="132.29167"
       cy="132.29167"
       fx="132.29167"
       fy="132.29167"
       r="132.29167"
       gradientUnits="userSpaceOnUse" />
  </defs>
  <g
     inkscape:label="Layer 1"
     inkscape:groupmode="layer"
     id="layer1">
    <rect
       style="fill:url(#radialGradient20);fill-rule:nonzero;stroke:#ffffff;stroke-width:0"
       id="rect1"
       width="264.58334"
       height="264.58334"
       x="0"
       y="0"
       ry="52.211063"
       rx="52.211063" />
    <path
       d="M 93.133307,190.76463 61.912452,85.813166 Q 60.677729,81.756219 59.266617,79.992329 57.855505,78.05205 54.327725,76.464548 l -2.116668,-0.881945 v -1.76389 h 46.743087 v 1.76389 l -3.704169,1.411113 q -4.056948,1.587501 -5.46806,3.880558 -1.411112,2.293057 -0.176389,6.350004 l 19.226404,73.377832 20.8139,-61.559769 -4.05695,-12.523619 q -1.23472,-3.704169 -2.29305,-5.644448 -1.05834,-1.940279 -3.52778,-3.175002 l -3.88056,-2.116669 v -1.76389 h 44.27364 v 1.76389 l -5.46806,2.116669 q -3.52778,1.234723 -4.05695,3.704169 -0.35277,2.293057 0.88195,5.997226 l 22.4014,74.965333 21.16668,-73.554221 q 1.23473,-4.233336 0.88195,-7.408338 -0.35278,-3.175002 -4.40973,-4.586114 l -3.70417,-1.234724 v -1.76389 h 24.51808 v 1.76389 l -4.58612,1.763891 q -3.52778,1.234723 -4.93889,3.880558 -1.41111,2.645835 -2.46945,6.526393 L 171.09725,190.76463 h -12.17084 l -26.45835,-82.90284 -27.16391,82.90284 z"
       id="text1"
       style="font-weight:bold;font-size:176.389px;line-height:1.1;font-family:'DM Serif Display';-inkscape-font-specification:'DM Serif Display Bold';fill:#006700;stroke:#f397fc;stroke-width:0;stroke-opacity:0"
       aria-label="W" />
  </g>
</svg>
